<svg width="65" height="12" viewBox="0 0 65 12" fill="none" xmlns="http://www.w3.org/2000/svg">
<path d="M2.472 9.144C1.928 9.144 1.544 9.036 1.32 8.82C1.096 8.596 0.984 8.22 0.984 7.692V4.74C0.984 4.524 0.936 4.372 0.84 4.284C0.744 4.196 0.564 4.148 0.3 4.14L0.252 4.068L0.312 3.708C0.504 3.612 0.688 3.504 0.864 3.384C1.048 3.256 1.208 3.136 1.344 3.024C1.488 2.904 1.6 2.808 1.68 2.736C1.76 2.656 1.8 2.616 1.8 2.616L2.04 2.712C2.04 2.712 2.028 2.788 2.004 2.94C1.988 3.092 1.968 3.316 1.944 3.612L3.708 3.576L3.744 3.612L3.636 4.248L1.896 4.212C1.872 4.588 1.852 5.028 1.836 5.532C1.82 6.036 1.812 6.596 1.812 7.212C1.812 7.62 1.88 7.908 2.016 8.076C2.16 8.244 2.404 8.328 2.748 8.328C2.948 8.328 3.132 8.292 3.3 8.22C3.476 8.148 3.564 8.112 3.564 8.112L3.684 8.424C3.684 8.424 3.636 8.46 3.54 8.532C3.444 8.604 3.324 8.688 3.18 8.784C3.044 8.88 2.908 8.964 2.772 9.036C2.644 9.108 2.544 9.144 2.472 9.144ZM6.91294 9.144C6.40894 9.144 5.96894 9.032 5.59294 8.808C5.21694 8.584 4.92094 8.276 4.70494 7.884C4.49694 7.484 4.39294 7.02 4.39294 6.492C4.39294 6.084 4.46094 5.696 4.59694 5.328C4.74094 4.96 4.93694 4.636 5.18494 4.356C5.43294 4.068 5.71294 3.844 6.02494 3.684C6.34494 3.516 6.68494 3.432 7.04494 3.432C8.23694 3.432 8.83294 4.012 8.83294 5.172C8.83294 5.276 8.82494 5.384 8.80894 5.496C8.79294 5.608 8.77694 5.696 8.76094 5.76L8.60494 5.904H5.29294C5.28494 6.616 5.41294 7.18 5.67694 7.596C5.94894 8.004 6.32894 8.244 6.81694 8.316C7.30494 8.38 7.88094 8.26 8.54494 7.956L8.61694 7.98L8.74894 8.328C8.58894 8.44 8.39694 8.56 8.17294 8.688C7.95694 8.816 7.73694 8.924 7.51294 9.012C7.28894 9.1 7.08894 9.144 6.91294 9.144ZM5.34094 5.46L7.51294 5.352C7.63294 5.336 7.71294 5.308 7.75294 5.268C7.79294 5.228 7.81294 5.148 7.81294 5.028C7.81294 4.708 7.72494 4.464 7.54894 4.296C7.38094 4.128 7.13694 4.044 6.81694 4.044C6.44894 4.044 6.12894 4.172 5.85694 4.428C5.58494 4.676 5.41294 5.02 5.34094 5.46ZM12.1775 9.072L12.1535 9.012L12.2255 8.64C12.4255 8.632 12.5655 8.608 12.6455 8.568C12.7335 8.528 12.7775 8.468 12.7775 8.388C12.7775 8.34 12.7615 8.28 12.7295 8.208C12.6975 8.136 12.6455 8.048 12.5735 7.944L11.6975 6.72C11.5535 6.896 11.3855 7.104 11.1935 7.344C11.0015 7.576 10.8335 7.792 10.6895 7.992C10.5535 8.184 10.4855 8.316 10.4855 8.388C10.4855 8.468 10.5215 8.52 10.5935 8.544C10.6655 8.568 10.8055 8.588 11.0135 8.604L11.0375 8.652L10.9655 9.048C10.9655 9.048 10.9255 9.044 10.8455 9.036C10.7735 9.036 10.6815 9.032 10.5695 9.024C10.4575 9.016 10.3455 9.008 10.2335 9C10.1295 9 10.0415 9 9.96947 9C9.86547 9 9.75747 9 9.64547 9C9.53347 9.008 9.43747 9.016 9.35747 9.024C9.28547 9.032 9.24947 9.036 9.24947 9.036L9.21347 8.976L9.28547 8.604C9.42947 8.524 9.55347 8.444 9.65747 8.364C9.76147 8.276 9.86947 8.168 9.98147 8.04C10.0935 7.912 10.2335 7.748 10.4015 7.548L11.4335 6.348L10.5215 5.052C10.3455 4.796 10.1975 4.6 10.0775 4.464C9.95747 4.328 9.83347 4.228 9.70547 4.164C9.57747 4.092 9.41747 4.04 9.22547 4.008L9.20147 3.96L9.27347 3.552C9.27347 3.552 9.34547 3.556 9.48947 3.564C9.64147 3.564 9.81347 3.568 10.0055 3.576C10.1975 3.576 10.3575 3.576 10.4855 3.576C10.7175 3.576 10.9255 3.572 11.1095 3.564C11.2935 3.556 11.4375 3.548 11.5415 3.54C11.6535 3.532 11.7095 3.528 11.7095 3.528L11.7335 3.588L11.6615 3.96C11.3015 3.96 11.1215 4.036 11.1215 4.188C11.1215 4.268 11.1495 4.356 11.2055 4.452C11.2615 4.54 11.3295 4.64 11.4095 4.752L12.0695 5.712L12.8015 4.788C12.9135 4.652 13.0015 4.536 13.0655 4.44C13.1375 4.344 13.1735 4.256 13.1735 4.176C13.1735 4.112 13.1375 4.072 13.0655 4.056C13.0015 4.032 12.8655 4.02 12.6575 4.02L12.6335 3.972L12.6935 3.576H13.5695C13.6815 3.576 13.8015 3.572 13.9295 3.564C14.0655 3.556 14.1815 3.552 14.2775 3.552C14.3735 3.544 14.4215 3.54 14.4215 3.54L14.4575 3.6L14.3855 3.984C14.2575 4.024 14.1055 4.128 13.9295 4.296C13.7615 4.456 13.5775 4.652 13.3775 4.884L12.3455 6.096L13.4495 7.668C13.6575 7.964 13.8495 8.184 14.0255 8.328C14.2095 8.464 14.4215 8.544 14.6615 8.568L14.6855 8.616L14.6135 9.024C14.6135 9.024 14.5495 9.02 14.4215 9.012C14.2935 9.012 14.1415 9.008 13.9655 9C13.7975 9 13.6495 9 13.5215 9C13.4015 9 13.2655 9.004 13.1135 9.012C12.9615 9.02 12.8135 9.028 12.6695 9.036C12.5255 9.044 12.4055 9.052 12.3095 9.06C12.2215 9.068 12.1775 9.072 12.1775 9.072ZM17.2728 9.144C16.7288 9.144 16.3448 9.036 16.1208 8.82C15.8968 8.596 15.7848 8.22 15.7848 7.692V4.74C15.7848 4.524 15.7368 4.372 15.6408 4.284C15.5448 4.196 15.3648 4.148 15.1008 4.14L15.0528 4.068L15.1128 3.708C15.3048 3.612 15.4888 3.504 15.6648 3.384C15.8488 3.256 16.0088 3.136 16.1448 3.024C16.2888 2.904 16.4008 2.808 16.4808 2.736C16.5608 2.656 16.6008 2.616 16.6008 2.616L16.8408 2.712C16.8408 2.712 16.8288 2.788 16.8048 2.94C16.7888 3.092 16.7688 3.316 16.7448 3.612L18.5088 3.576L18.5448 3.612L18.4368 4.248L16.6968 4.212C16.6728 4.588 16.6528 5.028 16.6368 5.532C16.6208 6.036 16.6128 6.596 16.6128 7.212C16.6128 7.62 16.6808 7.908 16.8168 8.076C16.9608 8.244 17.2048 8.328 17.5488 8.328C17.7488 8.328 17.9328 8.292 18.1008 8.22C18.2768 8.148 18.3648 8.112 18.3648 8.112L18.4848 8.424C18.4848 8.424 18.4368 8.46 18.3408 8.532C18.2448 8.604 18.1248 8.688 17.9808 8.784C17.8448 8.88 17.7088 8.964 17.5728 9.036C17.4448 9.108 17.3448 9.144 17.2728 9.144Z" fill="#25CF7A"/>
<path d="M21.7137 9.144C21.2097 9.144 20.7697 9.032 20.3937 8.808C20.0177 8.584 19.7217 8.276 19.5057 7.884C19.2977 7.484 19.1937 7.02 19.1937 6.492C19.1937 6.084 19.2617 5.696 19.3977 5.328C19.5417 4.96 19.7377 4.636 19.9857 4.356C20.2337 4.068 20.5137 3.844 20.8257 3.684C21.1457 3.516 21.4857 3.432 21.8457 3.432C23.0377 3.432 23.6337 4.012 23.6337 5.172C23.6337 5.276 23.6257 5.384 23.6097 5.496C23.5937 5.608 23.5777 5.696 23.5617 5.76L23.4057 5.904H20.0937C20.0857 6.616 20.2137 7.18 20.4777 7.596C20.7497 8.004 21.1297 8.244 21.6177 8.316C22.1057 8.38 22.6817 8.26 23.3457 7.956L23.4177 7.98L23.5497 8.328C23.3897 8.44 23.1977 8.56 22.9737 8.688C22.7577 8.816 22.5377 8.924 22.3137 9.012C22.0897 9.1 21.8897 9.144 21.7137 9.144ZM20.1417 5.46L22.3137 5.352C22.4337 5.336 22.5137 5.308 22.5537 5.268C22.5937 5.228 22.6137 5.148 22.6137 5.028C22.6137 4.708 22.5257 4.464 22.3497 4.296C22.1817 4.128 21.9377 4.044 21.6177 4.044C21.2497 4.044 20.9297 4.172 20.6577 4.428C20.3857 4.676 20.2137 5.02 20.1417 5.46ZM26.9783 9.072L26.9543 9.012L27.0263 8.64C27.2263 8.632 27.3663 8.608 27.4463 8.568C27.5343 8.528 27.5783 8.468 27.5783 8.388C27.5783 8.34 27.5623 8.28 27.5303 8.208C27.4983 8.136 27.4463 8.048 27.3743 7.944L26.4983 6.72C26.3543 6.896 26.1863 7.104 25.9943 7.344C25.8023 7.576 25.6343 7.792 25.4902 7.992C25.3543 8.184 25.2863 8.316 25.2863 8.388C25.2863 8.468 25.3223 8.52 25.3943 8.544C25.4663 8.568 25.6063 8.588 25.8143 8.604L25.8383 8.652L25.7663 9.048C25.7663 9.048 25.7263 9.044 25.6463 9.036C25.5743 9.036 25.4823 9.032 25.3703 9.024C25.2583 9.016 25.1463 9.008 25.0343 9C24.9303 9 24.8423 9 24.7703 9C24.6663 9 24.5583 9 24.4463 9C24.3343 9.008 24.2383 9.016 24.1583 9.024C24.0863 9.032 24.0503 9.036 24.0503 9.036L24.0143 8.976L24.0863 8.604C24.2303 8.524 24.3543 8.444 24.4583 8.364C24.5623 8.276 24.6703 8.168 24.7823 8.04C24.8943 7.912 25.0343 7.748 25.2023 7.548L26.2343 6.348L25.3223 5.052C25.1463 4.796 24.9983 4.6 24.8783 4.464C24.7582 4.328 24.6343 4.228 24.5063 4.164C24.3783 4.092 24.2183 4.04 24.0263 4.008L24.0023 3.96L24.0743 3.552C24.0743 3.552 24.1463 3.556 24.2903 3.564C24.4423 3.564 24.6143 3.568 24.8063 3.576C24.9983 3.576 25.1583 3.576 25.2863 3.576C25.5183 3.576 25.7263 3.572 25.9103 3.564C26.0943 3.556 26.2383 3.548 26.3423 3.54C26.4543 3.532 26.5103 3.528 26.5103 3.528L26.5343 3.588L26.4623 3.96C26.1023 3.96 25.9223 4.036 25.9223 4.188C25.9223 4.268 25.9503 4.356 26.0063 4.452C26.0623 4.54 26.1303 4.64 26.2103 4.752L26.8703 5.712L27.6023 4.788C27.7143 4.652 27.8023 4.536 27.8663 4.44C27.9383 4.344 27.9743 4.256 27.9743 4.176C27.9743 4.112 27.9383 4.072 27.8663 4.056C27.8023 4.032 27.6663 4.02 27.4583 4.02L27.4342 3.972L27.4943 3.576H28.3703C28.4823 3.576 28.6023 3.572 28.7303 3.564C28.8663 3.556 28.9823 3.552 29.0783 3.552C29.1743 3.544 29.2223 3.54 29.2223 3.54L29.2583 3.6L29.1863 3.984C29.0583 4.024 28.9063 4.128 28.7303 4.296C28.5623 4.456 28.3783 4.652 28.1783 4.884L27.1463 6.096L28.2503 7.668C28.4583 7.964 28.6503 8.184 28.8263 8.328C29.0103 8.464 29.2223 8.544 29.4623 8.568L29.4863 8.616L29.4143 9.024C29.4143 9.024 29.3503 9.02 29.2223 9.012C29.0943 9.012 28.9423 9.008 28.7663 9C28.5983 9 28.4503 9 28.3223 9C28.2023 9 28.0663 9.004 27.9143 9.012C27.7623 9.02 27.6143 9.028 27.4703 9.036C27.3263 9.044 27.2063 9.052 27.1103 9.06C27.0223 9.068 26.9783 9.072 26.9783 9.072ZM30.1416 11.844L30.2016 11.376C30.4576 11.344 30.6216 11.272 30.6936 11.16C30.7736 11.056 30.8136 10.84 30.8136 10.512C30.8136 10.384 30.8136 10.196 30.8136 9.948C30.8216 9.7 30.8256 9.44 30.8256 9.168C30.8336 8.904 30.8376 8.688 30.8376 8.52V4.944C30.8376 4.672 30.7936 4.484 30.7056 4.38C30.6176 4.268 30.4656 4.212 30.2496 4.212H30.1176L30.0816 4.164L30.1176 3.768C30.3976 3.72 30.6656 3.672 30.9216 3.624C31.1776 3.568 31.3856 3.52 31.5456 3.48C31.7136 3.44 31.7976 3.42 31.7976 3.42L31.8696 3.516C31.8696 3.516 31.8536 3.584 31.8216 3.72C31.7896 3.856 31.7656 4.004 31.7496 4.164L31.7976 4.248C32.1496 4 32.4456 3.808 32.6856 3.672C32.9336 3.536 33.1016 3.468 33.1896 3.468C33.6536 3.468 34.0576 3.576 34.4016 3.792C34.7456 4 35.0136 4.296 35.2056 4.68C35.4056 5.056 35.5056 5.496 35.5056 6C35.5056 6.432 35.4256 6.84 35.2656 7.224C35.1136 7.6 34.8976 7.932 34.6176 8.22C34.3456 8.508 34.0296 8.736 33.6696 8.904C33.3096 9.064 32.9256 9.144 32.5176 9.144C32.4216 9.144 32.3056 9.14 32.1696 9.132C32.0336 9.124 31.9096 9.116 31.7976 9.108C31.6936 9.1 31.6416 9.096 31.6416 9.096C31.6416 9.296 31.6416 9.5 31.6416 9.708C31.6496 9.916 31.6536 10.124 31.6536 10.332C31.6536 10.7 31.6896 10.948 31.7616 11.076C31.8416 11.212 31.9936 11.28 32.2176 11.28C32.2816 11.28 32.3496 11.276 32.4216 11.268C32.4936 11.268 32.5616 11.268 32.6256 11.268L32.6496 11.304L32.5536 11.76C32.4576 11.76 32.3616 11.76 32.2656 11.76C32.1696 11.76 32.0736 11.76 31.9776 11.76C31.8896 11.76 31.7976 11.76 31.7016 11.76C31.6056 11.76 31.5096 11.76 31.4136 11.76C31.1896 11.76 30.9776 11.764 30.7776 11.772C30.5856 11.788 30.4296 11.804 30.3096 11.82C30.1976 11.836 30.1416 11.844 30.1416 11.844ZM32.8536 8.484C33.3896 8.484 33.8096 8.304 34.1136 7.944C34.4256 7.576 34.5816 7.076 34.5816 6.444C34.5816 6.036 34.5096 5.672 34.3656 5.352C34.2296 5.024 34.0416 4.764 33.8016 4.572C33.5616 4.38 33.2936 4.284 32.9976 4.284C32.8376 4.284 32.6416 4.34 32.4096 4.452C32.1776 4.556 31.9576 4.696 31.7496 4.872C31.7336 5.2 31.7176 5.56 31.7016 5.952C31.6856 6.344 31.6736 6.74 31.6656 7.14C31.6576 7.54 31.6536 7.912 31.6536 8.256C31.8136 8.32 32.0016 8.376 32.2176 8.424C32.4416 8.464 32.6536 8.484 32.8536 8.484ZM40.4054 9.144C40.0854 9.144 39.8334 9.064 39.6494 8.904C39.4734 8.736 39.3694 8.492 39.3374 8.172L39.2894 8.16C39.0974 8.352 38.9134 8.52 38.7374 8.664C38.5694 8.8 38.4174 8.908 38.2814 8.988C38.1534 9.06 38.0494 9.096 37.9694 9.096C37.6734 9.096 37.4094 9.032 37.1774 8.904C36.9454 8.776 36.7614 8.6 36.6254 8.376C36.4974 8.152 36.4334 7.896 36.4334 7.608C36.4334 7.376 36.4894 7.172 36.6014 6.996C36.7214 6.82 36.8774 6.704 37.0694 6.648L39.3494 6.024L39.3614 5.496C39.3614 5.096 39.2694 4.784 39.0854 4.56C38.9014 4.336 38.6414 4.224 38.3054 4.224C38.0814 4.224 37.8454 4.276 37.5974 4.38C37.3494 4.484 37.1054 4.632 36.8654 4.824L36.8054 4.788L36.6614 4.272C36.8694 4.152 37.1014 4.028 37.3574 3.9C37.6134 3.764 37.8574 3.652 38.0894 3.564C38.3214 3.476 38.4974 3.432 38.6174 3.432C38.9694 3.432 39.2694 3.496 39.5174 3.624C39.7654 3.744 39.9534 3.92 40.0814 4.152C40.2174 4.376 40.2854 4.652 40.2854 4.98C40.2854 5.084 40.2734 5.252 40.2494 5.484C40.2334 5.716 40.2094 5.976 40.1774 6.264C40.1454 6.544 40.1174 6.816 40.0934 7.08C40.0774 7.344 40.0694 7.564 40.0694 7.74C40.0694 7.916 40.1134 8.052 40.2014 8.148C40.2894 8.244 40.4094 8.292 40.5614 8.292C40.6974 8.292 40.8334 8.26 40.9694 8.196C41.1054 8.124 41.2094 8.056 41.2814 7.992L41.4494 8.184C41.3854 8.288 41.2974 8.408 41.1854 8.544C41.0814 8.672 40.9614 8.792 40.8254 8.904C40.6974 9.016 40.5574 9.096 40.4054 9.144ZM38.1734 8.28C38.3254 8.28 38.5014 8.228 38.7014 8.124C38.9094 8.012 39.0974 7.872 39.2654 7.704L39.3254 6.48L37.6934 6.972C37.4614 7.044 37.3454 7.212 37.3454 7.476C37.3454 7.7 37.4214 7.892 37.5734 8.052C37.7334 8.204 37.9334 8.28 38.1734 8.28ZM45.4553 8.652C45.6953 8.588 45.8673 8.496 45.9713 8.376C46.0753 8.248 46.1273 8.08 46.1273 7.872L46.1753 5.496C46.1753 5.096 46.0873 4.788 45.9113 4.572C45.7433 4.356 45.4993 4.248 45.1793 4.248C44.9873 4.248 44.7913 4.288 44.5913 4.368C44.3913 4.448 44.2113 4.536 44.0513 4.632C43.8993 4.728 43.7833 4.808 43.7033 4.872C43.6953 5.08 43.6833 5.328 43.6673 5.616C43.6593 5.896 43.6473 6.184 43.6313 6.48C43.6233 6.776 43.6153 7.044 43.6073 7.284C43.5993 7.524 43.5953 7.704 43.5953 7.824C43.5953 8.072 43.6273 8.248 43.6913 8.352C43.7633 8.448 43.8753 8.496 44.0273 8.496C44.0993 8.496 44.1873 8.492 44.2913 8.484C44.3953 8.476 44.4473 8.472 44.4473 8.472L44.4713 8.52L44.3633 9.036C44.3633 9.036 44.3033 9.032 44.1833 9.024C44.0633 9.016 43.9193 9.008 43.7513 9C43.5833 9 43.4233 9 43.2713 9C43.1033 9 42.9273 9.004 42.7433 9.012C42.5593 9.028 42.4033 9.04 42.2753 9.048C42.1473 9.064 42.0833 9.072 42.0833 9.072L42.1433 8.58C42.3753 8.54 42.5393 8.468 42.6353 8.364C42.7313 8.26 42.7793 8.096 42.7793 7.872V4.944C42.7793 4.672 42.7353 4.484 42.6473 4.38C42.5593 4.268 42.4073 4.212 42.1913 4.212H42.0593L42.0233 4.164L42.0593 3.768C42.3393 3.72 42.6073 3.672 42.8633 3.624C43.1193 3.568 43.3273 3.52 43.4873 3.48C43.6553 3.44 43.7393 3.42 43.7393 3.42L43.8113 3.516C43.8113 3.516 43.7913 3.596 43.7513 3.756C43.7193 3.916 43.6953 4.1 43.6793 4.308L43.7033 4.344C43.7753 4.296 43.8873 4.224 44.0393 4.128C44.1993 4.024 44.3673 3.92 44.5433 3.816C44.7273 3.712 44.9033 3.624 45.0713 3.552C45.2393 3.472 45.3713 3.432 45.4673 3.432C45.9713 3.432 46.3713 3.572 46.6673 3.852C46.9633 4.132 47.1113 4.508 47.1113 4.98C47.1113 5.084 47.1033 5.256 47.0873 5.496C47.0713 5.736 47.0513 6.004 47.0273 6.3C47.0033 6.596 46.9833 6.88 46.9673 7.152C46.9513 7.424 46.9433 7.648 46.9433 7.824C46.9433 8.056 46.9753 8.228 47.0393 8.34C47.1033 8.444 47.2113 8.496 47.3633 8.496C47.4353 8.496 47.5233 8.492 47.6273 8.484C47.7313 8.476 47.7833 8.472 47.7833 8.472L47.8073 8.52L47.7113 9.036C47.7113 9.036 47.6753 9.032 47.6033 9.024C47.5393 9.024 47.4513 9.02 47.3393 9.012C47.2353 9.012 47.1193 9.008 46.9913 9C46.8713 9 46.7553 9 46.6433 9C46.5153 9 46.3793 9.008 46.2353 9.024C46.0993 9.04 45.9673 9.056 45.8393 9.072C45.7113 9.088 45.6073 9.104 45.5273 9.12C45.4473 9.136 45.4073 9.144 45.4073 9.144L45.4553 8.652ZM53.5055 9.144C52.8815 9.144 52.5255 8.86 52.4375 8.292L52.3535 8.256C51.9375 8.536 51.6055 8.748 51.3575 8.892C51.1095 9.036 50.9415 9.108 50.8535 9.108C50.3975 9.108 49.9935 9.004 49.6415 8.796C49.2975 8.58 49.0255 8.284 48.8255 7.908C48.6335 7.524 48.5375 7.08 48.5375 6.576C48.5375 6 48.6695 5.476 48.9335 5.004C49.2055 4.524 49.5695 4.144 50.0255 3.864C50.4815 3.576 50.9815 3.432 51.5255 3.432C51.6375 3.432 51.7615 3.436 51.8975 3.444C52.0335 3.452 52.1855 3.464 52.3535 3.48V1.488C52.3535 1.264 52.3175 1.1 52.2455 0.995999C52.1735 0.892 52.0615 0.84 51.9095 0.84C51.8455 0.84 51.7775 0.848 51.7055 0.864C51.6415 0.879999 51.6095 0.887999 51.6095 0.887999L51.6575 0.443999C51.8655 0.42 52.0735 0.388 52.2815 0.348C52.4895 0.308 52.6815 0.268 52.8575 0.228C53.0335 0.187999 53.1735 0.155999 53.2775 0.132C53.3815 0.108 53.4335 0.0959995 53.4335 0.0959995L53.5055 0.252C53.4735 0.307999 53.4415 0.487999 53.4095 0.792C53.3775 1.096 53.3455 1.496 53.3135 1.992C53.2895 2.488 53.2655 3.048 53.2415 3.672C53.2175 4.288 53.1975 4.944 53.1815 5.64C53.1735 6.336 53.1695 7.036 53.1695 7.74C53.1695 7.916 53.2135 8.052 53.3015 8.148C53.3895 8.244 53.5095 8.292 53.6615 8.292C53.7895 8.292 53.9055 8.268 54.0095 8.22C54.1215 8.164 54.2095 8.112 54.2735 8.064C54.3455 8.016 54.3815 7.992 54.3815 7.992L54.5495 8.184C54.5495 8.184 54.5215 8.224 54.4655 8.304C54.4095 8.384 54.3335 8.484 54.2375 8.604C54.1415 8.716 54.0295 8.824 53.9015 8.928C53.7815 9.032 53.6495 9.104 53.5055 9.144ZM51.0455 8.328C51.1895 8.328 51.3375 8.296 51.4895 8.232C51.6415 8.168 51.7815 8.096 51.9095 8.016C52.0455 7.928 52.1535 7.852 52.2335 7.788C52.3135 7.724 52.3535 7.692 52.3535 7.692V4.404C52.3535 4.404 52.2495 4.36 52.0415 4.272C51.8335 4.176 51.5495 4.128 51.1895 4.128C50.6535 4.128 50.2295 4.312 49.9175 4.68C49.6135 5.04 49.4615 5.536 49.4615 6.168C49.4615 6.568 49.5295 6.932 49.6655 7.26C49.8095 7.588 50.0015 7.848 50.2415 8.04C50.4815 8.232 50.7495 8.328 51.0455 8.328ZM57.5028 9.144C56.9988 9.144 56.5588 9.032 56.1828 8.808C55.8068 8.584 55.5108 8.276 55.2948 7.884C55.0868 7.484 54.9828 7.02 54.9828 6.492C54.9828 6.084 55.0508 5.696 55.1868 5.328C55.3308 4.96 55.5268 4.636 55.7748 4.356C56.0228 4.068 56.3028 3.844 56.6148 3.684C56.9348 3.516 57.2748 3.432 57.6348 3.432C58.8268 3.432 59.4228 4.012 59.4228 5.172C59.4228 5.276 59.4148 5.384 59.3988 5.496C59.3828 5.608 59.3668 5.696 59.3508 5.76L59.1948 5.904H55.8828C55.8748 6.616 56.0028 7.18 56.2668 7.596C56.5388 8.004 56.9188 8.244 57.4068 8.316C57.8948 8.38 58.4708 8.26 59.1348 7.956L59.2068 7.98L59.3388 8.328C59.1788 8.44 58.9868 8.56 58.7628 8.688C58.5468 8.816 58.3268 8.924 58.1028 9.012C57.8788 9.1 57.6788 9.144 57.5028 9.144ZM55.9308 5.46L58.1028 5.352C58.2228 5.336 58.3028 5.308 58.3428 5.268C58.3828 5.228 58.4028 5.148 58.4028 5.028C58.4028 4.708 58.3148 4.464 58.1388 4.296C57.9708 4.128 57.7268 4.044 57.4068 4.044C57.0388 4.044 56.7188 4.172 56.4468 4.428C56.1748 4.676 56.0028 5.02 55.9308 5.46ZM60.6377 8.568C60.8777 8.544 61.0377 8.468 61.1177 8.34C61.1977 8.204 61.2377 7.948 61.2377 7.572V4.932C61.2377 4.668 61.2017 4.48 61.1297 4.368C61.0577 4.256 60.9417 4.2 60.7817 4.2C60.7177 4.2 60.6577 4.208 60.6017 4.224C60.5537 4.232 60.5297 4.236 60.5297 4.236L60.4697 4.152L60.5057 3.78C60.7537 3.732 61.0017 3.68 61.2497 3.624C61.4977 3.568 61.7057 3.52 61.8737 3.48C62.0417 3.44 62.1257 3.42 62.1257 3.42L62.2097 3.492C62.2097 3.492 62.1977 3.556 62.1737 3.684C62.1577 3.812 62.1417 3.972 62.1257 4.164C62.1097 4.348 62.1017 4.536 62.1017 4.728L62.1497 4.764C62.3977 4.388 62.6817 4.08 63.0017 3.84C63.3217 3.6 63.6017 3.48 63.8417 3.48C63.9777 3.48 64.0737 3.488 64.1297 3.504C64.1857 3.52 64.2137 3.528 64.2137 3.528L64.2497 3.576C64.2497 3.576 64.2417 3.632 64.2257 3.744C64.2097 3.848 64.1897 3.988 64.1657 4.164C64.1417 4.332 64.1177 4.516 64.0937 4.716C64.0777 4.916 64.0657 5.108 64.0577 5.292L63.5897 5.328C63.5897 5 63.5697 4.784 63.5297 4.68C63.4897 4.568 63.4017 4.512 63.2657 4.512C63.0897 4.512 62.9017 4.584 62.7017 4.728C62.5017 4.872 62.3177 5.072 62.1497 5.328C62.1497 5.328 62.1457 5.404 62.1377 5.556C62.1297 5.7 62.1217 5.884 62.1137 6.108C62.1057 6.332 62.0977 6.564 62.0897 6.804C62.0817 7.036 62.0737 7.244 62.0657 7.428C62.0577 7.604 62.0537 7.72 62.0537 7.776C62.0537 8.048 62.0937 8.232 62.1737 8.328C62.2537 8.424 62.4057 8.472 62.6297 8.472C62.7177 8.472 62.8257 8.468 62.9537 8.46C63.0897 8.452 63.1577 8.448 63.1577 8.448L63.1697 8.496L63.0617 9.024C63.0617 9.024 63.0217 9.02 62.9417 9.012C62.8617 9.012 62.7577 9.012 62.6297 9.012C62.5017 9.012 62.3657 9.008 62.2217 9C62.0857 9 61.9577 9 61.8377 9C61.6057 9 61.3937 9.004 61.2017 9.012C61.0097 9.02 60.8577 9.028 60.7457 9.036C60.6337 9.044 60.5777 9.048 60.5777 9.048L60.6377 8.568Z" fill="black"/>
</svg>
