<svg width="24" height="24" viewBox="0 0 24 24" fill="none" xmlns="http://www.w3.org/2000/svg">
<path d="M14.0176 7.36653C14.0692 7.17438 14.0423 6.96961 13.9429 6.79726C13.8435 6.62492 13.6797 6.49912 13.4876 6.44753C13.2954 6.39595 13.0907 6.42281 12.9183 6.5222C12.746 6.62159 12.6202 6.78538 12.5686 6.97753L9.98059 16.6375C9.92914 16.8298 9.95617 17.0347 10.0558 17.207C10.1553 17.3793 10.3193 17.5051 10.5116 17.5565C10.7039 17.608 10.9087 17.5809 11.0811 17.4814C11.2534 17.3818 11.3791 17.2178 11.4306 17.0255L14.0176 7.36653Z" fill="black"/>
<path fill-rule="evenodd" clip-rule="evenodd" d="M11.943 1.25C9.634 1.25 7.825 1.25 6.413 1.44C4.969 1.634 3.829 2.04 2.934 2.934C2.039 3.829 1.634 4.969 1.44 6.414C1.25 7.825 1.25 9.634 1.25 11.943V12.057C1.25 14.366 1.25 16.175 1.44 17.587C1.634 19.031 2.04 20.171 2.934 21.066C3.829 21.961 4.969 22.366 6.414 22.56C7.825 22.75 9.634 22.75 11.943 22.75H12.057C14.366 22.75 16.175 22.75 17.587 22.56C19.031 22.366 20.171 21.96 21.066 21.066C21.961 20.171 22.366 19.031 22.56 17.586C22.75 16.175 22.75 14.366 22.75 12.057V11.943C22.75 9.634 22.75 7.825 22.56 6.413C22.366 4.969 21.96 3.829 21.066 2.934C20.171 2.039 19.031 1.634 17.586 1.44C16.175 1.25 14.366 1.25 12.057 1.25H11.943ZM3.995 3.995C4.565 3.425 5.335 3.098 6.614 2.926C7.914 2.752 9.622 2.75 12 2.75C14.378 2.75 16.086 2.752 17.386 2.926C18.665 3.098 19.436 3.426 20.006 3.995C20.575 4.565 20.902 5.335 21.074 6.614C21.248 7.914 21.25 9.622 21.25 12C21.25 14.378 21.248 16.086 21.074 17.386C20.902 18.665 20.574 19.436 20.005 20.006C19.435 20.575 18.665 20.902 17.386 21.074C16.086 21.248 14.378 21.25 12 21.25C9.622 21.25 7.914 21.248 6.614 21.074C5.335 20.902 4.564 20.574 3.994 20.005C3.425 19.435 3.098 18.665 2.926 17.386C2.752 16.086 2.75 14.378 2.75 12C2.75 9.622 2.752 7.914 2.926 6.614C3.098 5.335 3.426 4.565 3.995 3.995Z" fill="black"/>
</svg>
